<svg xmlns="http://www.w3.org/2000/svg" width="1241" height="916" viewBox="-30 -30 1241 916" role="img" aria-labelledby="title">
<title id="title">Pixel Tool Picker — icon only</title>
<desc>Vector trace of the matched PNG source. Wordmark and exterior background removed; white interiors retained. No embedded raster or text outlines.</desc>
<defs>
<linearGradient id="titleGrad" x1="0" y1="0" x2="1" y2="0.4">
  <stop offset="0%"   stop-color="#3FA838"/>
  <stop offset="25%"  stop-color="#6FB833"/>
  <stop offset="50%"  stop-color="#9FC72E"/>
  <stop offset="75%"  stop-color="#CFD629"/>
  <stop offset="100%" stop-color="#F0CB1F"/>
</linearGradient>
</defs>

<path id="white-interior" fill="#ffffff" fill-rule="evenodd" d="M633 0h33v1h11v8h20v9h10v8h9v34h13v10h20v9h10v1h1v9h21v9h10v6h1v1h22v10h18v1h1v2h-1v1h1v1h-1v3h1v1h10v14h9v1h1v47h9v-9h11v-9h7v-1h3v1h1v-10h2v-1h19v-9h75v9h17v1h3v9h3v1h15v10h10v11h9v1h1v9h8v1h1v4h-1v3h1v11h9v19h9v19h8v-1h1v1h1v27h19v8h12v1h10v3h1v6h12v-1h7v1h1v2h-1v8h9v1h1v19h-1v76h26v10h10v326h-10v9h-1v1h-9v9h-9v9h-1v1h-8v9h-7v7h-8v8h-7v1h-1v1h1v4h-1v1h1v1h-1v1h-26v-8h-39v-9h-38v-8h-38v-1h-1v-8h-37v-8h-1v-1h-15v1h-24v-1h-1v-7h-27v-1h-1v-8h-10v-8h-10v9h-9v1h-1v1h-17v8h-34v8h-33v8h-1v1h-35v1h-1v8h-24v1h-9v-1h-1v1h-1v8h-25v1h-12v8h-15v1h-20v8h-9v1h-27v8h-1v1h-35v8h-1v1h-35v9h-36v1h-1v8h-36v8h-1v1h-46v-9h-10v-8h-5v-1h-14v1h-1v-1h-1v-9h-10v-7h-1v-1h1v-1h-18v-1h-1v-9h-12v-9h-10v-9h-17v-10h-1v-1h-1v1h-1v-1h-14v-7h-1v-1h1v-1h-1v-1h-7v-9h-9v-1h-14v-12h-10v-9h-21v-10h-1v-5h-9v-46h10v-1h1v-1h9v-3h1v-1h5v-1h5v-1h2v1h1v6h15v-14h2v-1h15v15h1v1h1v-1h3v1h10v-1h1v-14h-1v-1h-14v-6h1v-1h6v-1h1v-1h2v-1h5v1h1v9h15v-16h-7v-1h-1v-1h1v-1h1v-1h1v-2h1v-3h1v-1h2v-1h1v1h1v9h16v-16h-17v-17h17v-3h1v-14h15v-16h-14v-1h-1v-16h1v-1h1v1h2v-1h2v1h8v-1h1v-16h-15v-15h1v-1h14v-16h-3v1h-1v-1h-3v1h-4v-1h-4v-16h1v-1h14v-16h-15v-16h1v-1h14v-15h-14v-1h-1v-17h15v-15h-14v-1h-1v-15h1v-1h14v-15h-15v-16h-1v-1h-15v4h-1v2h-1v1h-1v-1h-2v-1h-1v-3h-1v-2h5v-4h1v-7h-1v-6h-15v12h-8v-1h-8v-1h-1v8h4v1h6v1h1v4h12v1h5v7h1v1h1v1h10v1h1v77h-1v11h1v10h-1v21h1v11h-1v7h1v74h-2v1h-1v-1h-2v1h-5v11h-10v32h-10v8h-10v1h-1v1h-6v1h-5v2h-5v1h-4v1h-6v1h-6v6h-1v1h-19v1h-4v7h-9v1h-11v1h-12v1h-1v6h-13v1h-18v8h-11v1h-20v8h-6v1h-16v1h-5v1h1v7h-1v1h-15v1h-13v9h-14v1h-9v9h-7v1h-19v-15h-9v-230h9v-7h7v-8h12v-1h1v-8h15v-1h5v-1h7v-1h3v-7h1v-1h9v-1h14v-1h10v-1h4v-8h10v-1h15v-1h11v-8h1v-1h16v-1h14v-1h5v-8h18v-1h9v-1h10v-1h2v-5h2v-1h9v-1h4v-1h7v-1h10v-1h1v-5h5v-1h7v-1h4v-1h5v-1h4v-1h5v-1h4v-9h-22v3h-1v1h-9v1h-1v3h-9v1h-2v1h-14v6h-3v1h-7v1h-9v-67h-1v-1h1v-13h-1v-1h1v-31h-1v-4h1v-6h-1v-27h1v-6h-1v-24h1v-13h-1v-6h1v-23h-1v-6h1v-1h-1v-1h1v-1h9v-1h1v-10h9v-4h1v-1h7v-1h5v-1h9v-9h2v-1h16v-1h15v-9h3v-1h16v-1h14v-8h1v-1h8v-1h19v-1h8v-9h12v-1h18v-1h5v-9h9v-1h24v-1h2v-8h1v-1h15v-1h14v-1h6v-8h1v-1h15v-1h19v-9h4v-1h12v-1h16v-1h3v-8h9v-1h17v-1h10v-8h2v-1h22v-19h8v-1h8v-7h1v-1h2v-8h20v-1h7v-9h10z"/>
<path id="cobalt-ink" fill="url(#titleGrad)" fill-rule="evenodd" d="M641 0h22v1h1v-1h1v1h11v8h20v1h1v9h10v7h8v33h1v1h12v7h1v1h-1v1h1v1h19v1h1v1h-1v2h1v6h11v9h20v1h1v8h10v7h22v10h4v1h15v8h10v1h1v14h9v47h1v1h9v-7h1v-1h-1v-1h1v-1h11v-9h10v-1h1v-9h20v-1h1v-9h73v1h1v1h-1v3h1v5h20v10h18v10h9v11h1v1h9v9h9v19h10v19h9v19h9v1h1v1h-1v25h19v1h1v6h-1v1h1v1h22v9h20v10h6v1h1v-1h1v1h1v95h26v11h10v325h-10v1h-1v8h-9v1h-1v1h1v7h-1v1h-9v9h-8v1h-1v1h1v1h-1v6h-5v1h-1v6h-1v1h-8v8h-7v9h-25v-1h-1v-1h1v-2h-1v-3h1v-1h-1v-1h-37v1h-1v-1h-1v-8h-38v-9h-38v-8h-37v-1h-1v-8h-40v-1h-1v-1h1v-1h-1v-5h-6v1h-10v-1h-11v-8h-10v-8h-1v-1h-9v1h-1v8h-4v1h-5v1h-18v1h-1v8h-33v8h-34v8h-6v1h-30v8h-5v1h-30v9h-36v1h-1v8h-35v1h-1v8h-35v9h-24v1h-12v8h-5v1h-31v8h-7v1h-30v8h-8v1h-29v8h-9v1h-27v-1h-10v-1h1v-1h-1v-6h-9v-8h-1v-1h-20v-9h-8v-1h-3v-9h-19v-9h-11v-1h-1v-8h-9v-1h-1v-1h1v-4h-1v-3h-9v-1h-8v-10h-17v-10h-8v-10h-22v-1h-1v-11h-1v-1h-9v-8h-20v-1h-1v-14h-10v-43h1v-1h-1v-1h1v-1h10v-1h6v-1h3v-3h2v-1h6v-1h4v-1h1v7h17v-11h-1v-2h1v-1h5v-1h11v16h-17v16h-16v15h-14v9h14v-5h1v-1h-1v-2h1v-1h5v1h10v15h1v1h16v16h6v1h9v-1h1v-15h16v-1h1v-14h17v2h-1v10h1v1h-1v3h-16v1h-1v16h18v3h-1v1h1v2h-1v10h1v2h1v-1h2v1h5v-1h7v17h1v1h1v-1h1v1h14v17h1v-1h15v12h1v6h15v-17h-1v-1h-14v-1h-1v-14h1v-1h15v-17h-15v-2h-1v-9h1v-6h15v-17h-15v-4h-1v-2h1v-10h15v-17h-15v-17h15v-16h-1v-1h-14v-16h15v-17h-15v-17h12v1h2v-1h1v-16h-1v-1h-14v-16h14v-1h1v-16h-1v-1h-14v-16h15v-16h-15v-16h6v1h8v-1h1v-16h-15v-17h15v-16h-15v-16h15v-17h-15v-2h-1v-1h1v-1h-1v-3h1v-1h-1v-2h1v-6h15v-16h-1v-1h-8v1h-2v-1h-4v2h-1v15h-16v-16h8v-1h8v-13h1v-1h-1v-1h16v-17h-15v-2h-1v-15h16v-17h-1v-1h-14v-16h15v-17h-15v-6h-1v-7h1v-1h14v-11h-10v-1h-1v-8h-10v-5h-1v-1h-9v-2h-1v-1h-10v-8h-1v-1h-8v-1h-2v-1h-8v-7h-1v-1h-10v-8h-5v-1h-5v-3h-1v-1h-8v-1h-1v-3h-1v-2h-11v-8h-9v-1h-1v-1h-10v-3h-1v-5h-8v-1h-3v-6h-1v-1h-9v-6h-8v-1h-7v15h15v14h-15v17h16v16h-1v1h-15v17h15v1h1v15h-1v1h-5v-1h-5v1h-5v16h15v1h1v15h-1v1h-15v17h16v17h-9v-1h-5v1h-2v18h1v1h1v-1h13v-5h1v-1h-1v-1h1v-11h16v11h9v1h6v7h1v1h10v2h1v3h1v1h16v8h2v1h1v1h9v211h-9v12h-8v-1h-1v1h-1v31h-1v1h-9v1h-1v6h-1v1h-9v1h-2v1h-6v1h-3v1h-2v1h-5v1h-3v1h-11v1h-1v6h-5v1h-17v1h-1v7h-10v1h-22v1h-1v7h-20v1h-11v8h-15v1h-16v8h-10v1h-16v1h-1v8h-8v1h-20v1h-1v8h-10v1h-8v1h-4v1h-1v1h1v6h-2v1h-9v1h-15v-16h-9v-228h9v-8h8v-8h12v-1h1v-1h-1v-6h3v-1h14v-1h6v-1h7v-1h1v-8h12v-1h14v-1h11v-1h1v-8h12v-1h14v-1h9v-8h12v-1h11v-1h11v-1h2v-7h5v-1h16v-1h9v-1h9v-6h5v-1h6v-1h6v-1h9v-1h7v-5h1v-1h7v-1h5v-1h5v-1h5v-1h4v-1h5v-1h2v-9h-11v-1h-5v1h-6v1h-1v2h-2v1h-8v1h-1v3h-9v1h-14v1h-1v6h-6v1h-7v1h-6v-231h10v-10h1v-1h1v1h7v-1h1v-4h2v-1h8v-1h6v-1h6v-9h7v-1h16v-1h10v-9h10v-1h21v-1h1v-8h5v-1h15v-1h16v-9h5v-1h12v-1h18v-1h1v-1h-1v-1h1v-6h2v-1h17v-1h15v-9h11v-1h13v-1h12v-1h1v-8h6v-1h15v-1h13v-1h1v-1h-1v-1h1v-6h7v-1h14v-1h13v-1h1v-8h13v-1h22v-9h6v-1h18v-18h2v-1h6v-1h9v-7h2v-5h1v-4h22v-1h5v-9h17zM603 42h10v8h11v8h1v1h51v-9h11v-7h1v-1h9v-12h-10v-7h-16v-1h-1v-7h-36v7h-1v1h-19v1h-1v7h-10zM687 69h1v-1h-1v-1h-4v1h-5v1h-2v56h1v-1h3v-1h4v-1h2v-1h1v-48h1v-3h-1zM459 96h1v1h-1v5h-8v1h-9v1h-8v1h-9v8h-8v1h-11v1h-16v1h-1v8h-9v1h-7v1h-17v1h-1v8h-7v1h-10v1h-10v1h-10v8h-8v1h-13v1h-11v7h-1v1h-5v1h-9v1h-15v1h-4v7h-2v1h-7v1h-12v9h1v1h9v2h2v1h9v7h11v3h1v5h9v1h1v1h10v9h13v9h10v1h8v8h1v1h11v1h4v7h1v1h10v1h4v8h14v2h1v5h-1v1h1v1h5v1h11v8h17v-1h12v-7h5v-1h20v-1h1v1h1v-1h1v-7h3v-1h20v-1h9v-5h1v-1h-1v-1h1v-1h14v-1h18v-8h9v-1h16v-1h7v-7h1v-1h17v-1h15v-8h8v-1h18v-1h9v-8h12v-1h22v-1h1v-8h11v-1h22v-8h1v-1h16v-1h18v-8h6v-1h20v-1h8v-8h12v-1h21v-8h1v-1h19v-1h12v-8h19v-1h2v-9h-11v-2h-9v-1h-1v-8h-20v-1h-1v-8h-11v-8h-10v-1h-7v1h-3v-10h-1v-1h-10v-1h-10v-9h-14v39h-1v1h-7v9h-9v7h-7v1h-13v1h-1v8h-52v-8h-10v-1h-4v-1h-5v-7h-9v-1h-1v-8h-7v-59h-1v-1h-2v1h-19v1h-1v7h-2v1h-12v1h-17v1h-2v7h-2v1h-8v1h-9v1h-16v1h-1v7h-1v1h-7v1h-9v1h-10v1h-9v1h-1zM548 106h5v1h1v6h1v1h5v-1h3v4h1v1h8v8h10v34h-5v1h-5v1h-5v1h-13v4h-1v1h-7v1h-4v-1h-2v-1h-7v-1h-1v-7h-2v-1h-9v-8h-10v-1h-1v-21h1v-11h10v-7h7v-1h7v-1h6v-1h7zM531 128h1v1h10v7h11v-1h5v-1h5v-1h1v-8h-10v-8h-8v1h-4v1h-3v1h-8zM458 131h17v7h1v1h3v1h10v8h1v1h9v35h-4v1h-4v1h-6v1h-6v3h-1v1h-4v1h-5v1h-9v1h-1v-1h-1v-6h-9v-1h-1v-6h-2v-1h-8v-2h-1v-1h-9v-35h1v-1h9v-6h7v-1h8v-1h5zM448 152h10v7h1v1h11v-1h5v-1h6v-1h1v-8h-4v-1h-7v-6h-1v-1h-11v1h-1v1h-4v1h-6zM378 157h10v8h9v2h1v1h8v4h1v4h9v33h-3v1h-6v1h-1v1h-4v1h-6v1h-2v1h-4v1h-2v1h-4v1h-8v-1h-6v-1h-3v-7h-11v-9h-10v-33h4v-1h2v1h3v-1h1v-5h2v-1h9v-1h6v-1h5zM366 178h3v1h7v3h1v3h-1v1h2v1h1v-1h10v-1h4v-1h5v-1h1v-7h-1v-1h-9v-1h-1v-7h-4v1h-7v1h-1v1h-10zM953 190h1v1h1v9h13v1h1v8h10v9h10v1h1v8h3v1h6v9h9v1h1v18h9v18h1v1h8v9h1v16h1v1h2v-1h15v-16h8v-28h-8v-18h-6v-1h-3v-18h-9v-1h-1v-9h-9v-10h-9v-9h-9v-1h-1v-9h-9v-5h-2v-1h-9v-9h-64v1h-7v8h-13v6h-10v1h-1v9h-10v9h-11v10h-10v1h-1v2h1v1h-1v5h-9v2h-1v6h1v1h-1v1h-9v1h-1v7h1v1h-1v1h-11v18h-11v9h-10v17h-11v11h-9v1h-1v10h-10v10h-9v1h-1v9h-10v10h-11v10h-9v3h-1v56h1v1h9v19h11v9h20v-3h1v-4h-1v-1h1v-1h19v-1h1v-8h4v-1h6v-9h21v-10h21v9h1v1h19v9h11v1h1v9h10v8h11v8h1v1h19v-1h1v-8h8v-37h-8v-9h-7v-1h-3v-11h-10v-1h-1v-8h-11v-10h-10v-19h-8v-1h-4v-21h9v-1h1v1h1v-1h1v-29h10v-18h10v-9h1v-10h21v9h1v1h10v9h20v9h1v6h1v3h10v1h1v20h9v20h10v8h29v-8h1v-31h-1v-18h-9v-19h-10v-18h-17v-10h-3v-1h-1v-1h-8v-2h-1v-6h-1v-1h-9v-1h-1v-7h-10v-1h-1v-1h1v-6h-1v-10h16zM775 207h13v48h1v1h6v-1h5v-18h10v-10h10v-1h1v-9h9v-1h1v-8h3v-57h-1v-1h-6v1h-9v8h-1v1h-26v1h-7v8h-1v1h-21v1h-13v8h-11v1h-22v8h-1v1h-14v1h-19v1h-1v7h-3v1h-18v1h-12v4h-1v4h-6v1h-24v1h-4v8h-11v1h-23v8h-1v1h-22v1h-11v8h-10v1h-20v1h-3v7h-6v1h-16v1h-10v1h-1v1h1v5h-1v1h-17v1h-14v8h-19v1h-12v1h-1v7h-20v130h-1v8h1v109h-1v13h1v105h-1v15h1v45h-1v2h1v4h-1v4h1v2h3v-1h8v-1h4v-1h4v-1h7v-1h7v-1h6v-1h3v-4h3v-1h9v-1h7v-1h9v-1h6v-5h6v-1h9v-1h9v-1h7v-1h4v-1h1v-4h8v-1h9v-1h6v-1h7v-1h4v-3h1v-1h2v-1h8v-1h8v-1h8v-1h7v-1h2v-4h2v-1h10v-1h10v-1h9v-1h4v-4h1v-1h7v-1h8v-1h8v-1h6v-1h5v-5h7v-1h10v-1h7v-1h8v-1h5v-4h1v-1h5v-1h9v-1h9v-1h6v-1h3v-4h1v-1h9v-1h9v-1h4v-1h5v-1h7v-1h5v-4h1v-1h6v-1h8v-1h10v-1h6v-1h7v-1h2v-4h1v-1h10v-1h8v-1h5v-1h4v-1h3v-1h4v-79h1v-109h-13v7h-10v1h-1v8h-10v8h-1v1h-10v24h-1v112h-2v-1h-1v1h-6v9h-3v1h-5v1h-3v1h-5v1h-5v1h-4v1h-5v1h-3v1h-5v1h-4v1h-4v1h-5v1h-4v1h-5v1h-2v1h-5v1h-4v1h-3v1h-4v1h-4v1h-5v1h-4v1h-3v1h-5v1h-5v1h-2v1h-5v1h-4v1h-5v1h-4v1h-3v1h-4v1h-4v1h-9v1h-1v1h-1v1h-4v1h-5v1h-3v1h-5v1h-5v1h-5v1h-3v1h-2v1h-5v1h-6v1h-5v1h-5v1h-3v1h-1v1h-2v1h-5v1h-4v1h-5v1h-7v1h-7v1h-6v1h-2v3h-6v1h-5v1h-5v1h-8v1h-7v4h-3v1h-6v1h-8v1h-11v1h-2v1h-2v1h-2v1h-2v1h-2v1h-5v1h-7v-8h-9v-9h-10v-341h5v-1h3v1h1v-1h1v-9h8v-1h7v-1h8v-1h8v-3h1v-1h3v-1h6v-1h6v-1h4v-2h4v-1h8v-1h6v-3h1v-1h5v-1h7v-1h2v-1h3v-1h4v-1h5v-1h3v-1h6v-1h6v-1h5v-4h3v-1h6v-1h7v-1h5v-1h8v-2h3v-1h6v-1h1v-2h1v-1h8v-1h6v-1h7v-1h8v-5h3v-1h8v-1h7v-1h9v-1h5v-3h1v-3h8v-1h8v-1h6v-1h10v-1h1v-5h5v-1h9v-1h5v-1h8v-1h9v-1h1v-5h6v-1h8v-1h7v-1h12v-6h6zM249 212h4v4h1v1h-1v1h-1v-1h-3v1h-1v13h-16v-17h16v-1h1zM264 223h9v1h1v3h1v4h-11zM248 231h16v17h-16zM280 237h16v11h-16zM232 248h16v17h-16zM264 248h16v17h-16zM753 248h5v45h9v-9h2v-1h1v-37h-1v-8h-10v-5h-9v1h-1v2h-1v1h-5v1h-5v1h-4v1h-4v1h-7v1h-5v1h-1v1h-1v1h-4v1h-5v1h-5v1h-5v4h-4v1h-7v1h-9v1h-1v1h-1v1h-7v1h-4v1h-5v1h-5v2h-1v1h-3v1h-8v1h-6v1h-2v1h-5v1h-5v1h-1v2h-1v1h-7v1h-2v-1h-1v1h-5v1h-3v1h-5v1h-6v1h-1v2h-4v1h-5v1h-1v1h-5v1h-6v1h-5v1h-2v1h-1v1h-6v1h-3v1h-7v1h-4v3h-7v1h-6v1h-4v1h-1v2h-2v1h-5v1h-7v1h-8v1h-3v1h-1v2h-4v1h-7v1h-4v1h-4v1h-4v1h-4v1h-3v1h-1v3h-11v331h7v-1h5v-1h4v-1h4v-1h4v-1h5v-1h3v-1h3v-1h5v-1h4v-1h4v-1h4v-1h5v-1h4v-1h4v-1h4v-1h4v-1h4v-1h4v-1h4v-1h4v-1h4v-1h4v-1h4v-1h4v-1h4v-1h4v-1h4v-1h4v-1h4v-1h4v-1h4v-1h5v-1h4v-1h4v-1h3v-1h4v-1h4v-1h4v-1h4v-1h5v-1h4v-1h3v-1h5v-1h4v-1h4v-1h4v-1h4v-1h4v-1h4v-1h4v-1h4v-1h4v-1h4v-1h4v-1h4v-1h4v-1h4v-1h4v-1h3v-1h5v-1h3v-1h4v-1h4v-1h4v-1h4v-1h4v-1h4v-1h4v-1h4v-1h4v-1h4v-1h4v-1h4v-1h5v-1h4v-1h3v-84h-1v-1h-6v1h-5v74h-3v1h-5v1h-4v1h-4v1h-4v1h-4v1h-4v1h-4v1h-4v1h-4v1h-4v1h-4v1h-4v1h-4v1h-4v1h-3v1h-5v1h-4v1h-4v1h-4v1h-3v1h-4v1h-4v1h-4v1h-4v1h-4v1h-4v1h-4v1h-4v1h-4v1h-5v1h-3v1h-4v1h-4v1h-4v1h-4v1h-4v1h-5v1h-4v1h-4v1h-4v1h-3v1h-4v1h-5v1h-4v1h-4v1h-4v1h-4v1h-4v1h-5v1h-4v1h-4v1h-4v1h-3v1h-5v1h-4v1h-3v1h-4v1h-4v1h-4v1h-4v1h-4v1h-5v1h-4v1h-3v1h-4v1h-4v1h-4v1h-4v1h-3v1h-5v1h-5v-305h1v-1h8v-1h4v-1h5v-1h5v-1h7v-4h1v-1h1v1h1v-1h9v-1h6v-1h7v-1h1v-3h1v-1h7v-1h7v-1h4v-1h1v-1h9v-1h9v-4h1v-1h9v-1h6v-1h3v-3h9v-1h3v-1h9v-1h1v-1h-1v-2h1v-1h6v-1h7v-1h6v-1h7v-1h4v-4h1v-1h6v-1h7v-1h8v-1h8v-1h1v-4h3v-1h8v-1h8v-1h6v-1h7v-4h1v-1h5v-1h6v-1h6v-1h5v-1h5v-1h3v-1h6v-1h4v-3h1v-1h9v-1h5zM297 249h16v3h1v13h-17zM330 259h6v6h-6v8h-1v7h1v1h-1v1h-15v-17h15v-1h1v-2h-1v-2h1zM248 265h16v17h-16zM280 265h17v17h-17zM346 273h11v2h1v7h-1v1h-10v-1h-1zM232 282h16v16h-16zM264 282h16v17h-15v-1h-1zM297 282h16v1h1v16h-17zM330 282h16v17h-16zM927 293h10v-9h-10v-1h-1v-8h-12v-1h-8v1h-1v9h-1v-1h-9v1h-1v60h1v1h-1v4h1v4h12v-40h-1v-1h3v-1h5v1h1v-1h1v-9h11zM248 299h16v16h-16zM280 299h17v16h-1v1h-5v-1h-1v1h-6v-1h-1v1h-1v-1h-2zM314 299h16v5h-1v11h1v1h-16zM346 299h16v17h-16zM947 306h1v-1h-1v-1h-1v-1h-8v10h8v1h1v-1h1v-1h-1zM1056 311h4v1h5v1h4v1h5v1h7v1h2v1h4v1h5v1h4v1h6v1h2v1h6v1h4v116h13v-1h1v-118h-1v-1h-1v1h-2v-1h-2v1h-4v-1h-1v1h-1v-1h-1v-8h-2v-1h-9v-1h-5v-1h-6v-1h-1v-4h-1v-1h-21v-1h-5v5h-1v1h-2v1h-6zM232 315h15v1h1v16h-16zM264 315h1v1h15v16h-16zM297 316h17v16h-1v1h-2v-1h-14zM330 316h16v16h-1v1h-1v-1h-14zM1028 329h5v1h5v1h5v1h5v1h6v1h5v1h5v1h5v1h5v1h4v1h5v1h5v1h3v1h11v-10h-8v-1h-2v-1h-1v-1h-4v-1h-5v-1h-4v-1h-5v-1h-5v-1h-4v-1h-5v-1h-3v-1h-5v-1h-7v-1h-8v-1h-6v-1h-2zM248 332h16v16h-1v1h-4v-1h-8v-4h-1v-2h-2zM280 332h16v1h1v16h-16v-1h-1zM314 333h16v11h-1v1h1v4h-1v1h-15zM346 333h16v17h-16zM724 333h1v1h2v-1h1v-9h-13v1h-7v1h-1v7h-1v1h-1v-1h-1v1h-16v1h-1v9h-23v10h-10v3h-1v17h-10v68h10v8h1v17h9v1h1v22h10v10h9v-1h6v-1h8v-1h1v-7h1v-1h9v-1h9v-1h8v-1h3v-8h8v-1h12v-1h1v-17h-1v-1h-10v-16h-10v-18h-1v-1h-9v-19h-9v-1h-1v-59h9v-1h1v-9h6zM266 349h14v13h-5v-1h-9v-1h-1v-10h1zM297 350h17v17h-17zM330 350h16v8h-1v8h1v1h-16zM979 364h39v7h1v1h9v1h2v7h5v1h3v9h1v1h1v1h7v49h-1v2h-7v5h-1v6h1v1h9v7h6v5h2v1h5v5h1v4h1v1h8v22h-8v1h-8v-1h-2v-1h-4v-1h-2v-9h-2v-1h-7v-1h-1v-10h-6v-1h-3v-15h-9v5h-1v1h1v1h-1v1h-30v-1h-8v-1h-1v-1h1v-1h-1v-5h-6v-1h-4v-10h-8v-1h-1v-8h-1v-7h-1v-1h-6v-3h-1v-33h1v-5h7v-5h1v-6h7v-1h1v-6h1v-1h6v-1h4zM292 367h5v6h-3v-1h-1v-2h-1zM314 367h15v1h1v1h-1v15h-14v-1h-1zM346 367h16v1h1v4h-1v12h-1v-1h-8v1h-7zM923 374h7v14h5v1h1v-1h1v1h1v50h-8v7h-1v1h1v1h-7v1h-1v47h3v1h6v1h6v1h4v1h6v1h5v1h5v1h6v1h6v1h5v1h5v1h6v1h5v1h6v1h5v1h5v1h6v1h5v1h5v1h5v1h5v1h5v1h6v1h5v1h5v1h5v1h5v1h5v1h6v1h5v1h7v1h4v-140h1v-32h-3v-1h-7v-1h-6v-1h-4v-1h-3v-1h-4v-1h-6v-1h-3v-1h-5v-1h-4v-1h-5v-1h-6v-1h-6v-1h-4v-1h-7v7h-39v-1h-1v-7h-10v-1h-8v-6h-1v-1h-1v-1h-3v-1h-7v-1h-4v-1h-6v-1h-5v-1h-7v-1h-3zM633 381h1v-15h-1v-1h-9v1h-1v8h-18v1h-12v10h-9v1h-15v1h-5v6h-8v1h-1v9h-24v1h-6v9h-6v1h-4v71h1v6h10v23h3v1h6v11h1v1h9v8h14v-1h11v-1h5v-9h8v-1h11v-1h11v-9h9v-1h14v-1h6v-8h3v-1h16v-12h-10v-22h-9v-1h-1v-1h1v-3h-1v-13h1v-3h-1v-8h-9v-54h9zM330 384h16v13h-1v1h1v1h-15v1h-1v-2h-1v-10h1zM979 391h1v3h-1v1h-1v1h-2v1h-1v5h-1v1h-3v24h1v3h7v7h1v1h1v1h8v8h20v-1h5v-1h3v-1h1v-6h6v-5h1v-3h2v-27h-3v-7h-1v-1h-4v-1h-2v-4h-1v-2h-2v-1h-4v-1h-1v-1h-20v1h-1v2h-5v1h-3v1h-1zM315 399h1v1h14v1h-1v15h-12v-1h-2zM330 416h16v15h-1v1h-15zM315 431h1v1h14v1h-1v15h-14zM1156 431h1v7h-1v1h-13v10h-15v6h-1v5h-13v79h-1v2h1v1h-1v1h-22v8h1v1h7v1h3v1h1v9h1v1h10v1h-1v159h-1v29h-10v12h-15v-1h-6v-1h-5v-1h-5v-1h-4v-1h-5v-1h-4v-1h-4v-1h-5v-1h-5v-1h-6v-1h-3v-1h-6v-1h-5v-1h-4v-1h-3v-1h-5v-1h-5v-1h-6v-1h-4v-1h-4v-1h-5v-1h-5v-1h-4v-1h-4v-1h-5v-1h-6v-1h-5v-1h-5v-1h-5v-1h-5v-1h-6v-1h-1v-1h-4v-1h-6v-1h-6v-1h-4v-1h-5v-1h-4v-1h-6v-1h-6v-1h-1v-2h-7v-1h-3v-18h1v-10h-1v-63h1v-12h-1v-28h1v-11h-1v-43h1v-1h-1v-1h1v-1h9v9h1v1h10v-1h1v-9h9v-1h1v-1h-1v-5h1v-1h-1v-1h1v-1h20v-9h-10v-1h-11v-2h-1v-1h-2v1h-7v9h-1v1h-9v-1h-1v-6h-9v-14h-1v-2h1v-14h-1v-3h1v-13h-1v-5h1v-14h-3v-1h-3v-1h1v-1h-1v-2h1v-1h-1v-1h-2v-1h-5v192h-1v6h1v7h-1v70h1v14h10v8h1v1h33v8h1v1h1v-1h1v1h17v-1h17v1h3v-1h1v1h1v8h38v8h1v1h1v-1h1v1h13v-1h23v9h36v7h40v7h1v1h7v-1h1v-14h5v-33h1v-236h1v-44h15v-1h1v-9h1v-1h12v-10h13v-10h-13v1h-1zM346 432h16v16h-15v1h-1zM262 443h2v-24h-3v1h-5v1h-3v1h-4v1h-5v1h-2v24h3v-1h5v-1h3v-1h5v-1h4zM710 445h4v3h1v9h1v1h1v7h1v7h-1v1h-3v1h-4v1h-2v1h-1v1h-10v1h-2v-3h-1v-3h-1v-3h-1v-4h-1v-3h-1v-4h-1v-4h-1v-5h8v-1h4v-1h6v-1h4zM330 449h16v15h-16zM217 456h3v-23h-1v-1h-1v1h-5v1h-3v1h-3v1h-5v1h-3v23h7v-1h3v-1h4v-1h4zM315 465h15v1h-1v15h-14v-7h-1v-8h1zM346 465h17v15h-1v1h-16zM172 469h4v-24h-4v1h-4v1h-3v1h-4v1h-5v1h-1v23h4v-1h4v-1h5v-1h4zM275 474h1v-12h-1v-1h-5v1h-6v3h-1v1h-4v1h-6v1h-6v1h-6v1h-9v1h-1v6h-8v1h-6v1h-7v1h-3v1h-6v1h-2v1h-1v2h-1v-1h-1v1h-8v3h-4v1h-6v1h-6v1h-4v1h-2v116h7v-1h7v-1h7v-1h6v-1h5v-7h16v-1h10v-1h6v-1h1v-6h3v-1h12v-1h7v-1h9v-1h1v-6h6v-1h6zM68 477h1v20h-1v1h1v1h2v-1h4v-1h4v-1h3v-1h4v-1h3v-1h1v-1h-1v-1h1v-20h-1v-1h-3v1h-4v1h-3v1h-4v1h-4v1h-2v1h-1zM132 480h1v-23h-4v1h-4v1h-3v1h-4v1h-5v1h-2v23h7v-1h4v-1h3v-1h4v-1h3zM330 481h16v16h-16zM315 498h15v1h-1v15h-14v-11h-1v-1h1zM346 498h17v11h-1v3h1v1h-1v1h-16zM45 508h2v-22h-1v-1h-1v1h-4v1h-3v1h-2v1h-4v1h-3v1h-1v1h-1v19h1v3h5v-1h4v-2h2v-1h3v-1h3zM330 514h16v16h-16zM57 525h1v1h-1v3h-10v1h-5v1h-4v1h-1v3h-2v1h-5v1h-2v1h-1v1h1v2h-1v52h1v2h-1v59h7v-1h3v-5h6v-1h12v-1h3v-7h5v-1h8v-1h9v-1h6v-1h3v-6h1v-1h12v-1h10v-1h7v-1h3v-6h2v-1h13v-1h5v-1h1v-116h-5v1h-3v1h-4v1h-5v1h-4v3h-1v1h-9v-1h-5v1h-6v1h-1v4h-5v1h-7v1h-6v1h-3v3h-1v1h-6v1h-4v1h-9v1h-1v1h-1zM346 530h17v7h-1v2h1v6h-1v1h-16zM315 531h14v15h-14zM926 542h1v1h10v1h7v1h5v1h6v1h5v1h5v1h5v1h6v1h5v1h6v1h5v1h6v1h5v1h5v1h6v1h5v1h5v1h5v1h6v1h4v1h6v1h5v1h5v1h6v1h5v1h5v1h5v1h6v1h10v-9h-3v-1h-6v-1h-5v-1h-4v-1h-4v-1h-5v-1h-5v-1h-6v-1h-5v-1h-5v-1h-5v-1h-5v-1h-5v-1h-5v-1h-6v-1h-5v-1h-5v-1h-6v-1h-6v-1h-5v-1h-5v-1h-5v-1h-6v-1h-5v-1h-5v-1h-5v-1h-6v-1h-5v-1h-7v-1h-15v1h-1zM330 546h16v17h-16zM315 563h14v16h-14zM346 563h17v16h-17zM916 563h1v1h-1v1h-9v146h3v1h6v1h5v1h5v1h4v1h5v1h4v1h5v1h4v1h5v1h6v1h4v1h5v1h5v1h4v1h5v1h5v1h5v1h5v1h5v1h5v1h5v1h5v1h3v1h5v1h4v1h6v1h5v1h5v1h4v1h5v1h5v1h5v1h5v1h7v1h6v-160h-4v-1h-7v-3h-3v-1h-6v-1h-6v-1h-6v-1h-5v-1h-5v-1h-5v-1h-6v-1h-6v-1h-5v-1h-4v-1h-6v-1h-5v-1h-6v-1h-5v-1h-5v-1h-6v-1h-4v-1h-6v-1h-6v-1h-5v-1h-5v-1h-6v-1h-5v-1h-5v-1h-5v-1h-5v-1h-5v-1h-7v7h-1zM331 579h1v1h13v-1h1v17h-16v-16h1zM980 584h19v8h9v2h1v1h4v1h5v6h4v1h5v1h1v5h5v1h4v1h1v1h-1v7h-4v1h-5v1h-1v5h-3v1h-5v1h-5v1h-5v1h-1v4h-1v1h-3v1h-2v1h-3v1h-9v-1h-1v-1h-3v-1h-4v-1h-2v-1h-1v-4h-6v-1h-4v-5h-4v-1h-5v-1h-2v-3h-4v-1h-3v-1h-2v-1h-2v-1h-1v-1h-3v-1h-1v-1h3v-1h2v-4h1v-1h3v-1h7v-1h1v-1h-1v-2h1v-1h4v-1h5v-1h1v-4h6v-1h4v-2h1zM314 596h15v1h1v2h-1v8h1v6h-16zM346 596h16v9h1v8h-17zM296 613h17v1h1v15h-1v1h-17zM330 613h16v17h-16zM938 620h3v1h6v6h5v1h6v5h1v2h6v1h4v2h7v1h3v6h2v1h6v1h3v62h-1v1h-1v-1h-7v-1h-2v-6h-7v-1h-3v-4h-1v-1h-9v-1h-1v-6h-5v-1h-6v-8h-6v-1h-4v-58h1zM1038 621h8v65h-7v1h-1v6h-1v1h-9v3h-1v1h-3v1h-5v1h-1v4h-1v1h-8v1h-1v4h-9v-63h1v-1h8v-1h1v-6h5v-1h5v-1h8v-7h3v-1h7v-7h1zM261 628h3v-23h-6v1h-5v1h-3v1h-5v1h-3v23h6v-1h5v-1h3v-1h5zM314 630h15v1h1v1h-1v13h1v1h-1v1h-15zM346 630h16v17h-16zM294 637h2v2h1v8h-6v-1h-3v-1h2v-1h1v-2h1v-3h1v-1h1zM218 640h2v-23h-5v1h-4v1h-3v1h-4v1h-5v24h2v-1h6v-1h3v-1h4v-1h4zM297 647h17v2h-1v10h1v4h-17zM330 647h16v16h-16zM172 653h4v-24h-2v1h-5v1h-3v1h-5v1h-4v1h-2v24h4v-1h6v-1h1v-1h3v-1h3zM278 653h2v10h-14v-1h-1v-1h1v-4h2v-1h5v-1h1v-1h4zM818 655h3v44h-1v1h-4v1h-5v1h-3v1h-4v1h-4v1h-4v1h-4v1h-4v1h-5v1h-2v-1h-1v-44h3v-1h5v-1h4v-1h5v-1h4v-1h4v-1h4v-1h4v-1h5zM280 663h17v16h-17zM314 663h15v1h1v2h-1v14h-15zM346 663h9v1h3v-1h1v1h3v16h-16zM130 666h3v-23h-1v-1h-2v1h-4v1h-4v1h-3v1h-4v1h-3v1h-1v22h1v1h3v-1h4v-1h3v-1h4v-1h4zM68 670h1v8h-1v4h1v1h-1v1h5v-1h5v-1h2v-1h4v-1h4v-1h2v-20h-1v-3h-5v1h-4v1h-3v1h-3v1h-4v1h-1v4h-1zM264 679h16v16h-16zM297 680h17v3h-1v7h1v7h-6v-1h-11zM330 680h16v17h-16v1h-1v15h-15v-16h15v-1h1zM747 682h2v29h-1v1h-5v1h-4v1h-4v1h-5v1h-3v1h-5v1h-5v1h-3v1h-3v1h-4v1h-5v1h-4v1h-2v1h-6v1h-6v1h-4v1h-4v1h-1v1h-3v1h-4v1h-4v1h-5v1h-5v1h-6v1h-3v1h-5v1h-3v1h-2v1h-5v1h-6v1h-3v1h-5v1h-3v-29h3v-1h4v-1h5v-1h4v-1h4v-1h5v-1h6v-1h1v-1h4v-1h5v-1h5v-1h5v-1h1v-2h3v-1h10v-1h6v-1h4v-3h4v-1h5v-1h7v-1h5v-1h5v-1h6v-1h8v-3h1v-1h8v-1h5v-1h5zM231 688h1v-1h-1v-8h-12v-1h-2v5h-1v11h15zM27 689h1v11h2v-1h5v-1h2v-1h3v-1h3v-1h3v-1h1v-24h-3v1h-3v1h-4v2h-2v1h-3v1h-3v1h-1v1h-1zM805 690h5v-19h-3v1h-6v1h-5v1h-4v1h-1v18h2v-1h8v-1h4zM851 690h1v-73h-6v1h-3v1h-1v1h-6v1h-9v1h-10v1h-6v4h-1v1h-6v1h-10v1h-10v1h-5v1h-4v1h-1v4h-2v1h-8v1h-13v1h-7v1h-6v5h-1v1h-9v1h-13v1h-6v1h-4v1h-1v4h-2v1h-7v1h-14v1h-8v1h-6v5h-5v1h-13v1h-6v1h-8v1h-1v4h-1v1h-7v1h-16v1h-8v1h-3v1h-1v4h-4v1h-7v1h-13v1h-6v1h-5v1h-1v4h-5v1h-5v1h-15v1h-6v1h-5v4h-1v1h-4v1h-5v1h-12v1h-7v1h-7v5h-3v1h-13v1h-9v1h-6v1h-1v4h-1v1h-7v1h-13v1h-7v1h-3v3h-1v1h-8v1h-1v-1h-4v1h-6v1h-1v111h10v-4h8v-1h10v-1h13v-1h1v-5h13v-1h7v-1h7v-1h9v-1h1v-5h14v-1h5v-1h7v-1h9v-1h1v-4h2v-1h11v-1h6v-1h11v-1h5v-6h11v-1h7v-1h6v-1h12v-2h1v-4h10v-1h9v-1h7v-1h8v-6h5v-1h14v-1h8v-1h10v-6h4v-1h11v-1h6v-1h10v-1h4v-6h13v-1h6v-1h11v-1h4v-4h1v-1h5v-1h7v-1h4v-1h6v-1h6v-1h7v-5h8v-1h9v-1h5v-1h9v-6h8v-1h10v-1h6v-1h8v-2h1v-1h5v-1h4v-1h1v-4h6v-1h2zM248 695h16v16h-16v-1h-1v-1h1zM280 696h17v15h-1v1h-16v16h-12v-1h-4v-16h16zM346 697h16v17h-1v-1h-15zM330 713h16v4h-1v1h1v12h-17v-6h1zM567 723h5v40h-1v1h-4v1h-5v1h-4v1h-5v1h-4v1h-5v1h-1v-41h2v-1h5v-1h4v-1h4v-1h5v-1h4zM314 730h15v16h-15zM346 730h16v17h-3v-1h-13zM518 735h4v41h-4v1h-5v1h-4v1h-5v1h-4v1h-5v1h-2v-41h4v-1h4v-1h4v-1h4v-1h4v-1h5zM330 747h16v2h-1v1h1v13h-1v1h-1v-1h-15v-6h1zM469 747h3v41h-1v1h-5v1h-5v1h-5v1h-4v1h-5v1h-4v-41h3v-1h5v-1h4v-1h5v-1h4v-1h5zM346 764h16v16h-16z"/>
</svg>
